<?xml version="1.0" standalone="no"?>
<!DOCTYPE svg PUBLIC "-//W3C//DTD SVG 1.1//EN" "http://www.w3.org/Graphics/SVG/1.1/DTD/svg11.dtd">
<svg version="1.1" xmlns="http://www.w3.org/2000/svg" viewBox="0 0 1264.9190221274416 161.0377516981879" width="3794.757066382325" height="483.11325509456367"><!-- svg-source:excalidraw --><metadata></metadata><defs><style class="style-fonts">
      </style></defs><g stroke-linecap="round" transform="translate(10 31.14424370108472) rotate(0 77.87109375 44.3896484375)"><path d="M22.19 0 C60.21 -1.11, 101.62 1.01, 133.55 0 M22.19 0 C65.8 -0.46, 107.73 0.42, 133.55 0 M133.55 0 C147.47 -1.01, 155.68 8.88, 155.74 22.19 M133.55 0 C147.19 -2.12, 156.72 6.33, 155.74 22.19 M155.74 22.19 C156.86 38.19, 157.3 52.84, 155.74 66.58 M155.74 22.19 C156.07 33.75, 155.35 45.33, 155.74 66.58 M155.74 66.58 C155.24 82.31, 150.16 90.36, 133.55 88.78 M155.74 66.58 C154.72 81.43, 150.36 89.3, 133.55 88.78 M133.55 88.78 C95.59 87.93, 56.84 86.18, 22.19 88.78 M133.55 88.78 C109.53 86.97, 85.49 87.11, 22.19 88.78 M22.19 88.78 C8.77 90.55, -0.16 80.59, 0 66.58 M22.19 88.78 C9.27 90.08, -0.39 82.51, 0 66.58 M0 66.58 C0.94 50, 0.74 32.53, 0 22.19 M0 66.58 C-0.76 53.83, -0.31 39.99, 0 22.19 M0 22.19 C-0.26 8.49, 9.28 1.97, 22.19 0 M0 22.19 C-0.53 8.28, 8.47 -0.57, 22.19 0" stroke="#1e1e1e" stroke-width="2" fill="none"></path></g><g transform="translate(17.8515625 64.03389213858472) rotate(0 70.01953125 11.5)"><text x="70.01953125" y="16.900390625" font-family="Helvetica, Segoe UI Emoji" font-size="20px" fill="#1e1e1e" text-anchor="middle" style="white-space: pre;" direction="ltr" dominant-baseline="alphabetic">nighttime CDRs</text></g><g stroke-linecap="round" transform="translate(259.9154840358213 26.66404503546559) rotate(0 77.87109375 44.3896484375)"><path d="M22.19 0 C58.93 -1.22, 95.39 -0.18, 133.55 0 M22.19 0 C49.98 0.11, 76.69 -1.07, 133.55 0 M133.55 0 C149.38 1.53, 154.62 8.52, 155.74 22.19 M133.55 0 C150.55 -0.07, 156.18 5.11, 155.74 22.19 M155.74 22.19 C157.74 39.83, 156.63 55.87, 155.74 66.58 M155.74 22.19 C156.71 35.3, 155.3 47.3, 155.74 66.58 M155.74 66.58 C157.45 82.62, 147.26 89.39, 133.55 88.78 M155.74 66.58 C155.31 82.73, 146.17 87.35, 133.55 88.78 M133.55 88.78 C98.5 88.33, 64.87 90.3, 22.19 88.78 M133.55 88.78 C109.92 90.72, 86.9 90.69, 22.19 88.78 M22.19 88.78 C8.63 86.92, 1.32 83.1, 0 66.58 M22.19 88.78 C6.88 87.29, -1.14 81.41, 0 66.58 M0 66.58 C-1.25 53.38, 0.48 36.87, 0 22.19 M0 66.58 C-0.93 57.3, -0.52 48.23, 0 22.19 M0 22.19 C1.24 5.49, 8.22 -1.96, 22.19 0 M0 22.19 C2.07 9.29, 8.33 -2.1, 22.19 0" stroke="#1e1e1e" stroke-width="2" fill="none"></path></g><g transform="translate(291.1020074733213 36.55369347296559) rotate(0 46.6845703125 34.5)"><text x="46.6845703125" y="16.900390625" font-family="Helvetica, Segoe UI Emoji" font-size="20px" fill="#1e1e1e" text-anchor="middle" style="white-space: pre;" direction="ltr" dominant-baseline="alphabetic">user's</text><text x="46.6845703125" y="39.900390625" font-family="Helvetica, Segoe UI Emoji" font-size="20px" fill="#1e1e1e" text-anchor="middle" style="white-space: pre;" direction="ltr" dominant-baseline="alphabetic">movement</text><text x="46.6845703125" y="62.900390625" font-family="Helvetica, Segoe UI Emoji" font-size="20px" fill="#1e1e1e" text-anchor="middle" style="white-space: pre;" direction="ltr" dominant-baseline="alphabetic">trajectory</text></g><g stroke-linecap="round" transform="translate(542.5395967696811 26.546022974780243) rotate(0 77.87109375 44.3896484375)"><path d="M22.19 0 C45.75 0.99, 70.2 -0.98, 133.55 0 M22.19 0 C48.3 -0.27, 72.94 0.34, 133.55 0 M133.55 0 C148.99 0.12, 153.8 7.44, 155.74 22.19 M133.55 0 C146.66 -2.18, 156.81 7.83, 155.74 22.19 M155.74 22.19 C154.96 40.88, 153.52 56.39, 155.74 66.58 M155.74 22.19 C156.54 31.76, 155.66 43.37, 155.74 66.58 M155.74 66.58 C154.07 79.87, 148.89 90.65, 133.55 88.78 M155.74 66.58 C155.73 79.49, 148.12 90.6, 133.55 88.78 M133.55 88.78 C105.41 88.92, 74.02 90.1, 22.19 88.78 M133.55 88.78 C90.99 88.26, 47.07 88.33, 22.19 88.78 M22.19 88.78 C7.9 89.42, -0.69 82.6, 0 66.58 M22.19 88.78 C8.1 90.4, 0.69 83.26, 0 66.58 M0 66.58 C-0.58 48.4, 0.83 33.08, 0 22.19 M0 66.58 C-0.52 51.51, 0.19 37.03, 0 22.19 M0 22.19 C-0.77 7.24, 9.18 0.89, 22.19 0 M0 22.19 C-0.63 6.59, 5.37 1.82, 22.19 0" stroke="#1e1e1e" stroke-width="2" fill="none"></path></g><g transform="translate(550.3606874679233 47.93567141228024) rotate(0 70.05000305175781 23)"><text x="70.05000305175781" y="16.900390625" font-family="Helvetica, Segoe UI Emoji" font-size="20px" fill="#1e1e1e" text-anchor="middle" style="white-space: pre;" direction="ltr" dominant-baseline="alphabetic">user's nighttime</text><text x="70.05000305175781" y="39.900390625" font-family="Helvetica, Segoe UI Emoji" font-size="20px" fill="#1e1e1e" text-anchor="middle" style="white-space: pre;" direction="ltr" dominant-baseline="alphabetic">clusters</text></g><g stroke-linecap="round" transform="translate(823.5406802986624 25.900259474840027) rotate(0 77.87109375 44.3896484375)"><path d="M22.19 0 C64.37 0.59, 104.6 -1.29, 133.55 0 M22.19 0 C49.42 -0.96, 78.76 0.17, 133.55 0 M133.55 0 C148.42 1.67, 154.89 7.66, 155.74 22.19 M133.55 0 C147.32 0.72, 156.35 9.11, 155.74 22.19 M155.74 22.19 C154.18 38.68, 155.19 51.68, 155.74 66.58 M155.74 22.19 C156.03 36.33, 156.69 49.2, 155.74 66.58 M155.74 66.58 C154.88 80.74, 150.31 89.61, 133.55 88.78 M155.74 66.58 C157.43 80.46, 146.99 87.33, 133.55 88.78 M133.55 88.78 C91.76 91.4, 46.79 87.68, 22.19 88.78 M133.55 88.78 C95.23 88.05, 59.34 89.31, 22.19 88.78 M22.19 88.78 C7.94 88.29, 1.13 80.35, 0 66.58 M22.19 88.78 C8.26 87.98, 0.41 80.34, 0 66.58 M0 66.58 C1.08 50.33, 2.05 34.79, 0 22.19 M0 66.58 C0.11 50.28, -0.79 33.36, 0 22.19 M0 22.19 C1.64 6.35, 7.94 -1.86, 22.19 0 M0 22.19 C-1.06 6.57, 8.87 -0.01, 22.19 0" stroke="#1e1e1e" stroke-width="2" fill="none"></path></g><g transform="translate(847.2565006111624 47.28990791234003) rotate(0 54.1552734375 23)"><text x="54.1552734375" y="16.900390625" font-family="Helvetica, Segoe UI Emoji" font-size="20px" fill="#1e1e1e" text-anchor="middle" style="white-space: pre;" direction="ltr" dominant-baseline="alphabetic">users' home</text><text x="54.1552734375" y="39.900390625" font-family="Helvetica, Segoe UI Emoji" font-size="20px" fill="#1e1e1e" text-anchor="middle" style="white-space: pre;" direction="ltr" dominant-baseline="alphabetic">cluster</text></g><g stroke-linecap="round" transform="translate(1099.1768346274416 28.12875513728079) rotate(0 77.87109375 44.3896484375)"><path d="M22.19 0 C43.76 1.59, 66.14 -0.48, 133.55 0 M22.19 0 C58.43 -1.24, 95.76 -0.78, 133.55 0 M133.55 0 C148.75 -1.06, 155.15 8.74, 155.74 22.19 M133.55 0 C147.42 -1.69, 153.63 5.28, 155.74 22.19 M155.74 22.19 C157.53 41.34, 155.88 57.35, 155.74 66.58 M155.74 22.19 C154.57 34.12, 156.15 44.99, 155.74 66.58 M155.74 66.58 C155.07 83.29, 148.79 86.9, 133.55 88.78 M155.74 66.58 C155.08 82.8, 146.87 89.87, 133.55 88.78 M133.55 88.78 C89.3 88.73, 45.9 87.82, 22.19 88.78 M133.55 88.78 C103.19 90.37, 72.46 89.1, 22.19 88.78 M22.19 88.78 C9.13 89.07, 1.4 81.14, 0 66.58 M22.19 88.78 C8.6 89.45, -1.82 80.56, 0 66.58 M0 66.58 C1.46 56.56, -0.68 50.68, 0 22.19 M0 66.58 C0.55 50.58, -1.22 34.77, 0 22.19 M0 22.19 C1.12 6.43, 9.21 -1.67, 22.19 0 M0 22.19 C1.54 7.43, 7.46 0.25, 22.19 0" stroke="#1e1e1e" stroke-width="2" fill="none"></path></g><g transform="translate(1122.8926549399416 49.51840357478079) rotate(0 54.1552734375 23)"><text x="54.1552734375" y="16.900390625" font-family="Helvetica, Segoe UI Emoji" font-size="20px" fill="#1e1e1e" text-anchor="middle" style="white-space: pre;" direction="ltr" dominant-baseline="alphabetic">user's home</text><text x="54.1552734375" y="39.900390625" font-family="Helvetica, Segoe UI Emoji" font-size="20px" fill="#1e1e1e" text-anchor="middle" style="white-space: pre;" direction="ltr" dominant-baseline="alphabetic">location</text></g><g stroke-linecap="round"><g transform="translate(170.25389842854577 76.68009452257576) rotate(0 41.538171095059084 -0.7647520479881642)"><path d="M-0.08 0.19 C13.93 -0.21, 70.24 -2.27, 84.12 -2.46 M-1.58 -0.76 C12.36 -1.03, 69.71 -1.04, 83.72 -1.41" stroke="#1e1e1e" stroke-width="2" fill="none"></path></g><g transform="translate(170.25389842854577 76.68009452257576) rotate(0 41.538171095059084 -0.7647520479881642)"><path d="M60.33 7.41 C67.79 6.47, 73.06 2.23, 83.72 -1.41 M60.33 7.41 C67.8 3.31, 77.41 0.25, 83.72 -1.41" stroke="#1e1e1e" stroke-width="2" fill="none"></path></g><g transform="translate(170.25389842854577 76.68009452257576) rotate(0 41.538171095059084 -0.7647520479881642)"><path d="M60.13 -9.69 C67.64 -5.41, 72.98 -4.42, 83.72 -1.41 M60.13 -9.69 C67.6 -7.84, 77.28 -4.94, 83.72 -1.41" stroke="#1e1e1e" stroke-width="2" fill="none"></path></g></g><mask></mask><g stroke-linecap="round"><g transform="translate(422.19541093475146 74.04186492865577) rotate(0 56.27534104180204 0.48111672523907956)"><path d="M0.03 0.8 C18.78 1.21, 93.99 1.23, 112.59 1.44 M-1.41 0.17 C17.17 0.32, 92.42 -0.45, 111.66 -0.44" stroke="#1e1e1e" stroke-width="2" fill="none"></path></g><g transform="translate(422.19541093475146 74.04186492865577) rotate(0 56.27534104180204 0.48111672523907956)"><path d="M88.22 8.24 C96.89 5.61, 103.61 1.37, 111.66 -0.44 M88.22 8.24 C98.02 4.3, 106.28 1.57, 111.66 -0.44" stroke="#1e1e1e" stroke-width="2" fill="none"></path></g><g transform="translate(422.19541093475146 74.04186492865577) rotate(0 56.27534104180204 0.48111672523907956)"><path d="M88.13 -8.86 C96.68 -6.19, 103.43 -5.13, 111.66 -0.44 M88.13 -8.86 C97.98 -6.16, 106.27 -2.24, 111.66 -0.44" stroke="#1e1e1e" stroke-width="2" fill="none"></path></g></g><mask></mask><g stroke-linecap="round"><g transform="translate(706.8443830942527 74.18679677753809) rotate(0 53.649689926899484 -0.3708014196234366)"><path d="M-1.15 0.71 C16.43 0.35, 88.26 -1.03, 106.14 -1.46 M0.45 0.03 C18.32 -0.24, 90.25 -0.11, 108.25 -0.3" stroke="#1e1e1e" stroke-width="2" fill="none"></path></g><g transform="translate(706.8443830942527 74.18679677753809) rotate(0 53.649689926899484 -0.3708014196234366)"><path d="M84.79 8.34 C94.3 3.55, 100.3 0.46, 108.25 -0.3 M84.79 8.34 C89.52 5.83, 95.24 4.95, 108.25 -0.3" stroke="#1e1e1e" stroke-width="2" fill="none"></path></g><g transform="translate(706.8443830942527 74.18679677753809) rotate(0 53.649689926899484 -0.3708014196234366)"><path d="M84.73 -8.76 C94.35 -7.44, 100.37 -4.43, 108.25 -0.3 M84.73 -8.76 C89.5 -7.74, 95.24 -5.07, 108.25 -0.3" stroke="#1e1e1e" stroke-width="2" fill="none"></path></g></g><mask></mask><g stroke-linecap="round"><g transform="translate(990.6663201015417 72.33694531203064) rotate(0 48.40726531959061 -1.1231310835452533)"><path d="M-0.46 -0.17 C15.63 -0.33, 79.63 -0.86, 95.82 -1.35 M1.51 -1.31 C18.02 -1.76, 82.29 -2.85, 98 -3" stroke="#1e1e1e" stroke-width="2" fill="none"></path></g><g transform="translate(990.6663201015417 72.33694531203064) rotate(0 48.40726531959061 -1.1231310835452533)"><path d="M74.63 5.88 C80.02 2.16, 87.46 1.4, 98 -3 M74.63 5.88 C79.12 4.06, 85.65 1.12, 98 -3" stroke="#1e1e1e" stroke-width="2" fill="none"></path></g><g transform="translate(990.6663201015417 72.33694531203064) rotate(0 48.40726531959061 -1.1231310835452533)"><path d="M74.4 -11.22 C79.78 -10.81, 87.28 -7.43, 98 -3 M74.4 -11.22 C78.87 -9.08, 85.45 -8.06, 98 -3" stroke="#1e1e1e" stroke-width="2" fill="none"></path></g></g><mask></mask><g transform="translate(436.98874516651966 95.9512505307411) rotate(0 42.7978515625 23)"><text x="0" y="16.900390625" font-family="Helvetica, Segoe UI Emoji" font-size="20px" fill="#1e1e1e" text-anchor="start" style="white-space: pre;" direction="ltr" dominant-baseline="alphabetic">spatial </text><text x="0" y="39.900390625" font-family="Helvetica, Segoe UI Emoji" font-size="20px" fill="#1e1e1e" text-anchor="start" style="white-space: pre;" direction="ltr" dominant-baseline="alphabetic">clustering</text></g><g transform="translate(719.5635258870276 10) rotate(0 40.538208007812514 22.371065673828113)"><text x="0" y="16.438249938488" font-family="Helvetica, Segoe UI Emoji" font-size="19.45310058593749px" fill="#1e1e1e" text-anchor="start" style="white-space: pre;" direction="ltr" dominant-baseline="alphabetic">temporal </text><text x="0" y="38.80931561231611" font-family="Helvetica, Segoe UI Emoji" font-size="19.45310058593749px" fill="#1e1e1e" text-anchor="start" style="white-space: pre;" direction="ltr" dominant-baseline="alphabetic">filtering</text></g><g transform="translate(990.048529185797 105.03775169818789) rotate(0 57.2509765625 23)"><text x="0" y="16.900390625" font-family="Helvetica, Segoe UI Emoji" font-size="20px" fill="#1e1e1e" text-anchor="start" style="white-space: pre;" direction="ltr" dominant-baseline="alphabetic">the centroid </text><text x="0" y="39.900390625" font-family="Helvetica, Segoe UI Emoji" font-size="20px" fill="#1e1e1e" text-anchor="start" style="white-space: pre;" direction="ltr" dominant-baseline="alphabetic">of the cluster</text></g></svg>