<?xml version="1.0" standalone="no"?>
<!DOCTYPE svg PUBLIC "-//W3C//DTD SVG 1.1//EN" "http://www.w3.org/Graphics/SVG/1.1/DTD/svg11.dtd">
<svg version="1.1" xmlns="http://www.w3.org/2000/svg" viewBox="0 0 1068.2423095703125 326.6666564941406" width="3204.7269287109375" height="979.9999694824219"><!-- svg-source:excalidraw --><metadata></metadata><defs><style class="style-fonts">
      </style></defs><g stroke-linecap="round" transform="translate(317.5 209.66665649414062) rotate(0 97.87109374999999 53.5)"><path d="M26.75 0 C73.97 -2.25, 117.26 -1.11, 168.99 0 M26.75 0 C60.62 0.28, 93.56 -0.27, 168.99 0 M168.99 0 C185.46 0.28, 196.03 7.93, 195.74 26.75 M168.99 0 C186.78 -1.43, 196.41 6.98, 195.74 26.75 M195.74 26.75 C197.04 44.47, 194.94 56.45, 195.74 80.25 M195.74 26.75 C195.58 42.02, 195.88 58.7, 195.74 80.25 M195.74 80.25 C196.48 99.43, 186.47 105.17, 168.99 107 M195.74 80.25 C197.18 99.41, 185.59 107, 168.99 107 M168.99 107 C131.07 109.56, 97.13 107.04, 26.75 107 M168.99 107 C128.04 106.06, 85.71 106.92, 26.75 107 M26.75 107 C7.08 108.31, -0.88 99.87, 0 80.25 M26.75 107 C9.8 107.82, 1.18 96.4, 0 80.25 M0 80.25 C1.63 60.88, 1.42 40.52, 0 26.75 M0 80.25 C-0.22 66.42, 0.83 53.35, 0 26.75 M0 26.75 C-1.74 9.79, 10.25 -1.89, 26.75 0 M0 26.75 C-0.27 8.72, 6.81 1.29, 26.75 0" stroke="#1e1e1e" stroke-width="2" fill="none"></path></g><g transform="translate(341.6410903930664 240.16665649414062) rotate(0 73.7300033569336 23)"><text x="73.7300033569336" y="16.900390625" font-family="Helvetica, Segoe UI Emoji" font-size="20px" fill="#1e1e1e" text-anchor="middle" style="white-space: pre;" direction="ltr" dominant-baseline="alphabetic">monthly panel of</text><text x="73.7300033569336" y="39.900390625" font-family="Helvetica, Segoe UI Emoji" font-size="20px" fill="#1e1e1e" text-anchor="middle" style="white-space: pre;" direction="ltr" dominant-baseline="alphabetic">home locations</text></g><g stroke-linecap="round" transform="translate(318.33343505859375 10) rotate(0 97.87109374999999 44.3896484375)"><path d="M22.19 0 C57.57 -0.49, 94.92 -1.77, 173.55 0 M22.19 0 C76.4 -1.4, 130.18 -1.77, 173.55 0 M173.55 0 C187.46 0, 197.17 6.01, 195.74 22.19 M173.55 0 C188.24 -1.85, 197.82 8.32, 195.74 22.19 M195.74 22.19 C196.9 29.63, 196.55 41.46, 195.74 66.58 M195.74 22.19 C196.54 37.83, 196.78 52.93, 195.74 66.58 M195.74 66.58 C196.67 79.99, 188.62 90.36, 173.55 88.78 M195.74 66.58 C197.95 81.29, 189.33 89.96, 173.55 88.78 M173.55 88.78 C130.49 87.45, 90.89 88.84, 22.19 88.78 M173.55 88.78 C138.27 86.6, 102.61 86.84, 22.19 88.78 M22.19 88.78 C7.32 88.38, 0.69 82.29, 0 66.58 M22.19 88.78 C5.84 88.3, 0.46 80.32, 0 66.58 M0 66.58 C-0.55 55.7, -1.92 42.32, 0 22.19 M0 66.58 C-0.48 55.45, -0.83 43.24, 0 22.19 M0 22.19 C1.22 8.1, 8.63 1.08, 22.19 0 M0 22.19 C0.78 7.42, 9.35 -0.99, 22.19 0" stroke="#1e1e1e" stroke-width="2" fill="none"></path></g><g transform="translate(338.02452850341797 42.8896484375) rotate(0 78.18000030517578 11.5)"><text x="78.18000030517578" y="16.900390625" font-family="Helvetica, Segoe UI Emoji" font-size="20px" fill="#1e1e1e" text-anchor="middle" style="white-space: pre;" direction="ltr" dominant-baseline="alphabetic">reciprocated calls</text></g><g stroke-linecap="round" transform="translate(10 108.33331298828125) rotate(0 97.87109374999999 44.3896484375)"><path d="M22.19 0 C75.94 -2.93, 126.57 0.81, 173.55 0 M22.19 0 C52.34 -0.13, 85.39 0.64, 173.55 0 M173.55 0 C189.97 -0.55, 196.57 7.52, 195.74 22.19 M173.55 0 C189.49 -2.26, 197.06 5.16, 195.74 22.19 M195.74 22.19 C195.67 35.49, 195.72 54.14, 195.74 66.58 M195.74 22.19 C194.55 35.86, 195.67 49.88, 195.74 66.58 M195.74 66.58 C195.92 81.52, 190.05 90.5, 173.55 88.78 M195.74 66.58 C197.94 81.43, 190.05 88.33, 173.55 88.78 M173.55 88.78 C126.74 89.54, 84.44 86.29, 22.19 88.78 M173.55 88.78 C134.35 88.48, 95.46 88.34, 22.19 88.78 M22.19 88.78 C5.84 88.58, 1.11 80.35, 0 66.58 M22.19 88.78 C8.8 90.81, -0.86 81.61, 0 66.58 M0 66.58 C0.04 50.76, -1.51 34.28, 0 22.19 M0 66.58 C0.91 53.65, -0.05 38.91, 0 22.19 M0 22.19 C0.11 6.57, 6.63 -1.09, 22.19 0 M0 22.19 C-1.15 6.42, 9.48 -0.79, 22.19 0" stroke="#1e1e1e" stroke-width="2" fill="none"></path></g><g transform="translate(81.07109451293945 141.22296142578125) rotate(0 26.799999237060547 11.5)"><text x="26.799999237060547" y="16.900390625" font-family="Helvetica, Segoe UI Emoji" font-size="20px" fill="#1e1e1e" text-anchor="middle" style="white-space: pre;" direction="ltr" dominant-baseline="alphabetic">CDRs</text></g><g stroke-linecap="round" transform="translate(590.0000610351562 113.33328247070312) rotate(0 97.87109375 53.5)"><path d="M26.75 0 C74.65 2.48, 125.23 -0.68, 168.99 0 M26.75 0 C72.96 -0.16, 117.93 -0.84, 168.99 0 M168.99 0 C186.6 0.86, 193.97 7.14, 195.74 26.75 M168.99 0 C187.29 1.43, 194.68 9.61, 195.74 26.75 M195.74 26.75 C196.31 47.71, 196.2 64.56, 195.74 80.25 M195.74 26.75 C195.51 47.16, 196.61 68.56, 195.74 80.25 M195.74 80.25 C194.11 96.46, 185.26 106.21, 168.99 107 M195.74 80.25 C194.43 97.65, 186.46 107.85, 168.99 107 M168.99 107 C132.8 105.27, 99.24 105.45, 26.75 107 M168.99 107 C122.8 106.21, 79.2 106.06, 26.75 107 M26.75 107 C9.26 107.29, -1.41 97.21, 0 80.25 M26.75 107 C10.16 107.92, -1.14 96.88, 0 80.25 M0 80.25 C0.48 62.75, 0.98 41.07, 0 26.75 M0 80.25 C0.2 68.1, -0.72 54.29, 0 26.75 M0 26.75 C-1.76 10.11, 9.06 -0.14, 26.75 0 M0 26.75 C0.07 10.39, 9.15 2.06, 26.75 0" stroke="#1e1e1e" stroke-width="2" fill="none"></path></g><g transform="translate(609.6911544799805 143.83328247070312) rotate(0 78.18000030517578 23)"><text x="78.18000030517578" y="16.900390625" font-family="Helvetica, Segoe UI Emoji" font-size="20px" fill="#1e1e1e" text-anchor="middle" style="white-space: pre;" direction="ltr" dominant-baseline="alphabetic">reciprocated calls</text><text x="78.18000030517578" y="39.900390625" font-family="Helvetica, Segoe UI Emoji" font-size="20px" fill="#1e1e1e" text-anchor="middle" style="white-space: pre;" direction="ltr" dominant-baseline="alphabetic">with distance </text></g><g stroke-linecap="round" transform="translate(862.5001220703125 112.49996948242188) rotate(0 97.87109375 44.3896484375)"><path d="M22.19 0 C74.21 -0.41, 122.56 -0.44, 173.55 0 M22.19 0 C67.37 -1.48, 112.02 0.12, 173.55 0 M173.55 0 C186.91 0.57, 196.57 8.7, 195.74 22.19 M173.55 0 C186.35 0.34, 197.1 6.98, 195.74 22.19 M195.74 22.19 C196.81 35.41, 196.22 44.45, 195.74 66.58 M195.74 22.19 C195.62 38.81, 195.28 52.92, 195.74 66.58 M195.74 66.58 C195.49 82.69, 188.47 87.03, 173.55 88.78 M195.74 66.58 C193.99 82.94, 188.08 88.04, 173.55 88.78 M173.55 88.78 C134.62 86.81, 99.46 90.45, 22.19 88.78 M173.55 88.78 C124.89 89.87, 75.05 89.78, 22.19 88.78 M22.19 88.78 C6.77 87.45, -0.31 83.34, 0 66.58 M22.19 88.78 C8.37 88.45, 0.69 80.42, 0 66.58 M0 66.58 C1.47 51.09, 0.42 35.78, 0 22.19 M0 66.58 C0.98 55.19, 1.2 43.51, 0 22.19 M0 22.19 C-0.55 7.93, 6.46 1.62, 22.19 0 M0 22.19 C2.08 7.94, 7.83 -1.49, 22.19 0" stroke="#1e1e1e" stroke-width="2" fill="none"></path></g><g transform="translate(898.7012176513672 133.88961791992188) rotate(0 61.66999816894531 23)"><text x="61.66999816894531" y="16.900390625" font-family="Helvetica, Segoe UI Emoji" font-size="20px" fill="#1e1e1e" text-anchor="middle" style="white-space: pre;" direction="ltr" dominant-baseline="alphabetic">users' contact</text><text x="61.66999816894531" y="39.900390625" font-family="Helvetica, Segoe UI Emoji" font-size="20px" fill="#1e1e1e" text-anchor="middle" style="white-space: pre;" direction="ltr" dominant-baseline="alphabetic">distances</text></g><g stroke-linecap="round"><g transform="translate(209.91813273322936 152.515967392108) rotate(0 48.96227961225417 -30.205792754452887)"><path d="M-0.67 -0.19 C15.47 -10.13, 81.35 -50.13, 97.97 -60.36 M1.19 -1.33 C17.07 -11, 80.77 -48.87, 97.05 -58.79" stroke="#1e1e1e" stroke-width="2" fill="none"></path></g><g transform="translate(209.91813273322936 152.515967392108) rotate(0 48.96227961225417 -30.205792754452887)"><path d="M81.32 -39.36 C87.35 -46.9, 93.99 -52.81, 97.05 -58.79 M81.32 -39.36 C85.39 -42.62, 87.39 -48.18, 97.05 -58.79" stroke="#1e1e1e" stroke-width="2" fill="none"></path></g><g transform="translate(209.91813273322936 152.515967392108) rotate(0 48.96227961225417 -30.205792754452887)"><path d="M72.51 -54.02 C81.94 -55.7, 92.07 -55.8, 97.05 -58.79 M72.51 -54.02 C78.46 -54.34, 82.25 -56.91, 97.05 -58.79" stroke="#1e1e1e" stroke-width="2" fill="none"></path></g></g><mask></mask><g stroke-linecap="round"><g transform="translate(791.4031541608683 164.11897885007625) rotate(0 31.612764825521083 -1.0577056878877613)"><path d="M-0.52 -0.95 C9.98 -1.13, 51.63 -0.94, 62.15 -1.03 M1.41 1.16 C12.33 0.67, 54.28 -1.8, 64.3 -2.58" stroke="#1e1e1e" stroke-width="2" fill="none"></path></g><g transform="translate(791.4031541608683 164.11897885007625) rotate(0 31.612764825521083 -1.0577056878877613)"><path d="M41.43 7.51 C45.16 3.47, 53.88 1.93, 64.3 -2.58 M41.43 7.51 C49.42 5.04, 58.27 1.28, 64.3 -2.58" stroke="#1e1e1e" stroke-width="2" fill="none"></path></g><g transform="translate(791.4031541608683 164.11897885007625) rotate(0 31.612764825521083 -1.0577056878877613)"><path d="M40.29 -9.55 C44.29 -9.62, 53.27 -7.19, 64.3 -2.58 M40.29 -9.55 C48.79 -6.04, 58.03 -3.82, 64.3 -2.58" stroke="#1e1e1e" stroke-width="2" fill="none"></path></g></g><mask></mask><g stroke-linecap="round"><g transform="translate(209.1720518662578 151.083089314762) rotate(0 48.78857240094831 32.335794507440454)"><path d="M1.05 1.19 C17.3 11.98, 80.95 54.86, 96.88 65.36 M0.15 0.77 C16.84 11.16, 82.75 52.85, 99.23 63.6" stroke="#1e1e1e" stroke-width="2" fill="none"></path></g><g transform="translate(209.1720518662578 151.083089314762) rotate(0 48.78857240094831 32.335794507440454)"><path d="M74.84 58.12 C82.98 58.13, 88.25 59.11, 99.23 63.6 M74.84 58.12 C81.39 59.2, 86.72 61.43, 99.23 63.6" stroke="#1e1e1e" stroke-width="2" fill="none"></path></g><g transform="translate(209.1720518662578 151.083089314762) rotate(0 48.78857240094831 32.335794507440454)"><path d="M84.06 43.72 C89.96 47.42, 92.93 52.02, 99.23 63.6 M84.06 43.72 C88.09 48.56, 91.03 54.53, 99.23 63.6" stroke="#1e1e1e" stroke-width="2" fill="none"></path></g></g><mask></mask><g stroke-linecap="round"><g transform="translate(516.1206054389111 212.0938781181194) rotate(0 34.10919366582672 -26.36382009746498)"><path d="M-0.27 0.52 C11.01 -8.44, 56.61 -44.87, 67.92 -53.87 M1.79 -0.26 C12.87 -9.1, 56.03 -44.21, 66.81 -52.94" stroke="#1e1e1e" stroke-width="2" fill="none"></path></g><g transform="translate(516.1206054389111 212.0938781181194) rotate(0 34.10919366582672 -26.36382009746498)"><path d="M53.96 -31.49 C58.91 -38.77, 60.22 -46.16, 66.81 -52.94 M53.96 -31.49 C56.81 -36.98, 60.09 -42.02, 66.81 -52.94" stroke="#1e1e1e" stroke-width="2" fill="none"></path></g><g transform="translate(516.1206054389111 212.0938781181194) rotate(0 34.10919366582672 -26.36382009746498)"><path d="M43.18 -44.77 C51.54 -47.81, 56.27 -50.99, 66.81 -52.94 M43.18 -44.77 C48.62 -47.18, 54.43 -49.1, 66.81 -52.94" stroke="#1e1e1e" stroke-width="2" fill="none"></path></g></g><mask></mask><g transform="translate(508.7044677734375 146.88961791992188) rotate(0 15.640000343322754 11.5)"><text x="0" y="16.900390625" font-family="Helvetica, Segoe UI Emoji" font-size="20px" fill="#1e1e1e" text-anchor="start" style="white-space: pre;" direction="ltr" dominant-baseline="alphabetic">join</text></g><g transform="translate(205.87109375 203.55630493164062) rotate(0 45.790000915527344 34.5)"><text x="0" y="16.900390625" font-family="Helvetica, Segoe UI Emoji" font-size="20px" fill="#1e1e1e" text-anchor="start" style="white-space: pre;" direction="ltr" dominant-baseline="alphabetic">home</text><text x="0" y="39.900390625" font-family="Helvetica, Segoe UI Emoji" font-size="20px" fill="#1e1e1e" text-anchor="start" style="white-space: pre;" direction="ltr" dominant-baseline="alphabetic">location</text><text x="0" y="62.900390625" font-family="Helvetica, Segoe UI Emoji" font-size="20px" fill="#1e1e1e" text-anchor="start" style="white-space: pre;" direction="ltr" dominant-baseline="alphabetic">estimation</text></g><g stroke-linecap="round"><g transform="translate(518.7044067382812 95.22296142578125) rotate(0 32.5 29.999984741210938)"><path d="M-0.1 -0.6 C10.5 9.57, 53.47 50.11, 64.35 60.12 M-1.6 1.7 C9.32 12.16, 55.7 51.91, 66.73 61.72" stroke="#1e1e1e" stroke-width="2" fill="none"></path></g><g transform="translate(518.7044067382812 95.22296142578125) rotate(0 32.5 29.999984741210938)"><path d="M43.4 52.73 C50.86 54.95, 60.57 59.67, 66.73 61.72 M43.4 52.73 C49.42 54.63, 55.95 57.63, 66.73 61.72" stroke="#1e1e1e" stroke-width="2" fill="none"></path></g><g transform="translate(518.7044067382812 95.22296142578125) rotate(0 32.5 29.999984741210938)"><path d="M54.64 39.84 C57.9 46.76, 63.51 56.19, 66.73 61.72 M54.64 39.84 C57.72 45.09, 61.35 51.42, 66.73 61.72" stroke="#1e1e1e" stroke-width="2" fill="none"></path></g></g><mask></mask><g transform="translate(210.37109375 69.38958740234375) rotate(0 32.38999938964844 11.5)"><text x="0" y="16.900390625" font-family="Helvetica, Segoe UI Emoji" font-size="20px" fill="#1e1e1e" text-anchor="start" style="white-space: pre;" direction="ltr" dominant-baseline="alphabetic">filtering</text></g></svg>